<?xml version="1.0" encoding="UTF-8"?>
<svg xmlns="http://www.w3.org/2000/svg" xmlns:xlink="http://www.w3.org/1999/xlink" width="512px" height="512px" viewBox="0 0 512 512" version="1.1">
<g id="surface1">
<path style="fill:none;stroke-width:2;stroke-linecap:butt;stroke-linejoin:miter;stroke:rgb(0%,0%,0%);stroke-opacity:1;stroke-miterlimit:4;" d="M 29.999847 19.999924 L 90.000153 19.999924 " transform="matrix(7.314286,0,0,7.314286,-182.857143,0)"/>
<path style="fill:none;stroke-width:2;stroke-linecap:butt;stroke-linejoin:miter;stroke:rgb(0%,0%,0%);stroke-opacity:1;stroke-miterlimit:4;" d="M 49.999771 39.999847 L 75.000076 39.999847 " transform="matrix(7.314286,0,0,7.314286,-182.857143,0)"/>
<path style="fill-rule:nonzero;fill:rgb(0%,0%,0%);fill-opacity:1;stroke-width:2;stroke-linecap:butt;stroke-linejoin:miter;stroke:rgb(0%,0%,0%);stroke-opacity:1;stroke-miterlimit:4;" d="M 29.999847 19.999924 L 49.999771 39.999847 " transform="matrix(7.314286,0,0,7.314286,-182.857143,0)"/>
<path style="fill-rule:nonzero;fill:rgb(0%,0%,0%);fill-opacity:1;stroke-width:2;stroke-linecap:butt;stroke-linejoin:miter;stroke:rgb(0%,0%,0%);stroke-opacity:1;stroke-miterlimit:4;" d="M 60 19.999924 L 49.999771 39.999847 " transform="matrix(7.314286,0,0,7.314286,-182.857143,0)"/>
<path style="fill-rule:nonzero;fill:rgb(0%,0%,0%);fill-opacity:1;stroke-width:2;stroke-linecap:butt;stroke-linejoin:miter;stroke:rgb(0%,0%,0%);stroke-opacity:1;stroke-miterlimit:4;" d="M 60 19.999924 L 75.000076 39.999847 " transform="matrix(7.314286,0,0,7.314286,-182.857143,0)"/>
<path style="fill-rule:nonzero;fill:rgb(0%,0%,0%);fill-opacity:1;stroke-width:2;stroke-linecap:butt;stroke-linejoin:miter;stroke:rgb(0%,0%,0%);stroke-opacity:1;stroke-miterlimit:4;" d="M 75.000076 39.999847 L 90.000153 19.999924 " transform="matrix(7.314286,0,0,7.314286,-182.857143,0)"/>
<path style="fill-rule:nonzero;fill:rgb(0%,0%,0%);fill-opacity:1;stroke-width:2;stroke-linecap:butt;stroke-linejoin:miter;stroke:rgb(0%,0%,0%);stroke-opacity:1;stroke-miterlimit:4;" d="M 35.000229 19.999924 C 35.000229 22.761536 32.761459 24.999771 29.999847 24.999771 C 27.23877 24.999771 25 22.761536 25 19.999924 C 25 17.238312 27.23877 15.000076 29.999847 15.000076 C 32.761459 15.000076 35.000229 17.238312 35.000229 19.999924 Z M 35.000229 19.999924 " transform="matrix(7.314286,0,0,7.314286,-182.857143,0)"/>
<path style="fill-rule:nonzero;fill:rgb(0%,0%,0%);fill-opacity:1;stroke-width:2;stroke-linecap:butt;stroke-linejoin:miter;stroke:rgb(0%,0%,0%);stroke-opacity:1;stroke-miterlimit:4;" d="M 64.999847 19.999924 C 64.999847 22.761536 62.761612 24.999771 60 24.999771 C 57.238388 24.999771 55.000153 22.761536 55.000153 19.999924 C 55.000153 17.238312 57.238388 15.000076 60 15.000076 C 62.761612 15.000076 64.999847 17.238312 64.999847 19.999924 Z M 64.999847 19.999924 " transform="matrix(7.314286,0,0,7.314286,-182.857143,0)"/>
<path style="fill-rule:nonzero;fill:rgb(0%,0%,0%);fill-opacity:1;stroke-width:2;stroke-linecap:butt;stroke-linejoin:miter;stroke:rgb(0%,0%,0%);stroke-opacity:1;stroke-miterlimit:4;" d="M 95 19.999924 C 95 22.761536 92.76123 24.999771 90.000153 24.999771 C 87.238541 24.999771 84.999771 22.761536 84.999771 19.999924 C 84.999771 17.238312 87.238541 15.000076 90.000153 15.000076 C 92.76123 15.000076 95 17.238312 95 19.999924 Z M 95 19.999924 " transform="matrix(7.314286,0,0,7.314286,-182.857143,0)"/>
<path style="fill-rule:nonzero;fill:rgb(0%,0%,0%);fill-opacity:1;stroke-width:2;stroke-linecap:butt;stroke-linejoin:miter;stroke:rgb(0%,0%,0%);stroke-opacity:1;stroke-miterlimit:4;" d="M 55.000153 39.999847 C 55.000153 42.761459 52.761383 45.000229 49.999771 45.000229 C 47.238693 45.000229 44.999924 42.761459 44.999924 39.999847 C 44.999924 37.23877 47.238693 35 49.999771 35 C 52.761383 35 55.000153 37.23877 55.000153 39.999847 Z M 55.000153 39.999847 " transform="matrix(7.314286,0,0,7.314286,-182.857143,0)"/>
<path style="fill-rule:nonzero;fill:rgb(0%,0%,0%);fill-opacity:1;stroke-width:2;stroke-linecap:butt;stroke-linejoin:miter;stroke:rgb(0%,0%,0%);stroke-opacity:1;stroke-miterlimit:4;" d="M 79.999924 39.999847 C 79.999924 42.761459 77.761688 45.000229 75.000076 45.000229 C 72.238464 45.000229 70.000229 42.761459 70.000229 39.999847 C 70.000229 37.23877 72.238464 35 75.000076 35 C 77.761688 35 79.999924 37.23877 79.999924 39.999847 Z M 79.999924 39.999847 " transform="matrix(7.314286,0,0,7.314286,-182.857143,0)"/>
<path style="fill:none;stroke-width:3;stroke-linecap:butt;stroke-linejoin:miter;stroke:rgb(0%,0%,0%);stroke-opacity:1;stroke-miterlimit:4;" d="M 49.999771 54.999924 C 49.999771 54.999924 60 39.999847 70.000229 54.999924 " transform="matrix(7.314286,0,0,7.314286,-182.857143,0)"/>
<path style="fill:none;stroke-width:3;stroke-linecap:butt;stroke-linejoin:miter;stroke:rgb(0%,0%,0%);stroke-opacity:1;stroke-miterlimit:4;" d="M 53.999863 59.999771 C 53.999863 59.999771 60 50.000076 66.000137 59.999771 " transform="matrix(7.314286,0,0,7.314286,-182.857143,0)"/>
</g>
</svg>
