<?xml version="1.0" standalone="no"?>
<!DOCTYPE svg PUBLIC "-//W3C//DTD SVG 20010904//EN"
 "http://www.w3.org/TR/2001/REC-SVG-20010904/DTD/svg10.dtd">
<svg version="1.0" xmlns="http://www.w3.org/2000/svg"
 width="512.000000pt" height="512.000000pt" viewBox="0 0 512.000000 512.000000"
 preserveAspectRatio="xMidYMid meet">
<metadata>
Created by potrace 1.14, written by Peter Selinger 2001-2017
</metadata>
<g transform="translate(0.000000,512.000000) scale(0.100000,-0.100000)"
fill="#000000" stroke="none">
<path d="M432 4088 c-188 -28 -348 -212 -357 -407 -8 -182 88 -341 252 -419
69 -32 87 -36 168 -38 65 -2 106 2 148 16 l58 18 22 -32 c13 -17 36 -49 53
-71 16 -22 34 -48 39 -57 11 -20 315 -455 378 -540 l37 -52 -23 -25 c-68 -74
-107 -174 -108 -278 -1 -107 28 -193 92 -276 219 -280 654 -200 764 141 l17
52 588 0 588 0 12 -37 c23 -75 65 -148 115 -197 190 -191 509 -165 665 54 36
50 46 72 64 134 40 136 6 297 -83 399 l-29 33 254 364 c140 200 259 369 265
376 7 9 25 7 72 -8 49 -16 79 -19 142 -14 100 6 107 8 175 40 142 68 238 215
245 378 9 210 -148 408 -355 446 -217 41 -448 -101 -500 -305 l-14 -53 -591 0
-591 0 -13 49 c-23 90 -103 195 -191 250 -123 78 -293 86 -424 20 -105 -52
-200 -165 -226 -271 l-12 -48 -593 0 -593 0 -7 38 c-10 54 -60 143 -108 192
-106 107 -241 151 -395 128z m1702 -533 c9 -44 52 -132 86 -175 l30 -38 -254
-363 c-140 -200 -259 -369 -265 -376 -8 -9 -18 -9 -45 2 -76 32 -197 35 -281
7 -63 -22 -54 -28 -130 83 -27 39 -137 196 -245 350 -108 154 -199 285 -202
291 -4 5 5 23 19 40 36 42 69 102 84 156 7 27 20 49 29 50 8 2 275 3 592 3
l577 0 5 -30z m2037 26 c4 -1 9 -15 13 -31 9 -46 53 -134 85 -171 28 -32 28
-34 13 -58 -23 -35 -458 -658 -488 -697 l-23 -31 -58 19 c-70 24 -214 21 -277
-6 -22 -9 -40 -15 -41 -14 -1 2 -120 171 -264 377 l-262 374 31 38 c31 40 80
129 80 147 0 6 4 21 9 34 l9 23 583 -2 c321 0 587 -2 590 -2z m-1606 -355 c87
0 117 4 144 18 19 10 37 14 42 9 5 -5 125 -175 267 -377 l258 -369 -27 -30
c-29 -31 -82 -134 -93 -179 -5 -23 -12 -28 -39 -29 -34 0 -1001 0 -1101 1 -33
0 -57 3 -53 6 6 6 -24 98 -44 135 -8 13 -27 39 -42 58 -16 18 -26 39 -23 46 2
7 67 101 143 210 76 108 151 216 167 239 16 22 69 98 118 168 l89 127 42 -16
c30 -12 75 -17 152 -17z"/>
<path d="M2548 1695 c-2 -1 -29 -5 -60 -9 -137 -14 -313 -97 -458 -214 -122
-100 -305 -306 -283 -320 5 -4 47 -31 92 -61 45 -30 83 -52 84 -50 95 143 312
328 454 387 193 81 378 52 553 -86 65 -51 163 -157 218 -234 28 -41 52 -65 61
-62 18 6 171 108 171 114 0 14 -140 189 -203 253 -150 152 -319 248 -477 272
-46 7 -148 14 -152 10z"/>
<path d="M2470 1151 c-91 -24 -179 -73 -257 -145 -62 -57 -183 -199 -183 -214
0 -4 42 -31 92 -61 l92 -54 21 29 c44 62 163 173 218 204 136 76 273 22 402
-160 21 -30 42 -59 46 -64 6 -7 150 70 188 101 9 6 -93 146 -148 202 -144 148
-308 204 -471 162z"/>
</g>
</svg>
